<?xml version="1.0" encoding="UTF-8" standalone="no"?>
<!-- Created with Inkscape (http://www.inkscape.org/) -->

<svg
   version="1.1"
   id="svg1"
   width="500"
   height="507"
   viewBox="0 0 500 507"
   sodipodi:docname="NOVA LOGO SOLUTION PNG 2.svg"
   inkscape:version="1.4.2 (f4327f4, 2025-05-13)"
   inkscape:export-filename="..\NOVA LOGO SOLUTION PNG 3.png"
   inkscape:export-xdpi="96"
   inkscape:export-ydpi="96"
   xmlns:inkscape="http://www.inkscape.org/namespaces/inkscape"
   xmlns:sodipodi="http://sodipodi.sourceforge.net/DTD/sodipodi-0.dtd"
   xmlns="http://www.w3.org/2000/svg"
   xmlns:svg="http://www.w3.org/2000/svg">
  <defs
     id="defs1">
    <rect
       x="16.962825"
       y="327.3197"
       width="469.30483"
       height="84.185874"
       id="rect9" />
  </defs>
  <sodipodi:namedview
     id="namedview1"
     pagecolor="#ffffff"
     bordercolor="#000000"
     borderopacity="0.25"
     inkscape:showpageshadow="2"
     inkscape:pageopacity="0.0"
     inkscape:pagecheckerboard="0"
     inkscape:deskcolor="#d1d1d1"
     inkscape:zoom="2.0000001"
     inkscape:cx="237.49999"
     inkscape:cy="225.24999"
     inkscape:window-width="1920"
     inkscape:window-height="1009"
     inkscape:window-x="1912"
     inkscape:window-y="69"
     inkscape:window-maximized="1"
     inkscape:current-layer="g1" />
  <g
     inkscape:groupmode="layer"
     inkscape:label="Image"
     id="g1">
    <path
       style="fill:#7dc1c7;stroke-width:0.996845"
       d="m 234.37799,296.23292 c -7.14251,-3.70441 -16.80738,-8.76106 -21.47749,-11.23699 -4.67011,-2.47594 -15.57118,-8.21826 -24.22461,-12.76072 l -15.73352,-8.25904 v -25.19152 c 0,-23.56517 0.11286,-25.15146 1.74817,-24.57095 0.96149,0.34131 2.1977,0.93778 2.74712,1.3255 0.54944,0.38771 5.47655,3.02746 10.94918,5.86613 5.47261,2.83865 10.41743,5.52428 10.98848,5.96806 0.57104,0.44378 10.9279,5.86445 23.01523,12.04594 12.08734,6.18148 22.69696,11.68038 23.57695,12.21978 1.2143,0.74432 4.76318,-0.65614 14.72266,-5.80987 7.21746,-3.73483 13.01565,-6.87398 12.88483,-6.97591 -0.1308,-0.10192 -9.90269,-5.05183 -21.71531,-10.9998 -11.81262,-5.94797 -21.70226,-11.04432 -21.97697,-11.32524 -0.27471,-0.28091 -8.81576,-4.75196 -18.98011,-9.93565 -10.16435,-5.18368 -22.86354,-11.66942 -28.22042,-14.41275 l -9.73981,-4.98786 v -26.03688 -26.03686 l 17.23194,-9.18876 c 19.43683,-10.36449 23.49998,-12.56018 36.21206,-19.5686 4.94481,-2.72619 11.83257,-6.385164 15.30609,-8.131083 l 6.3155,-3.17439 7.17036,3.914172 c 3.94371,2.152791 11.21613,6.045641 16.16094,8.650771 4.94481,2.60513 11.46299,6.08724 14.48482,7.73802 3.02183,1.65078 9.76476,5.24991 14.98429,7.99807 5.21954,2.74815 12.18723,6.45201 15.48378,8.2308 l 5.99372,3.23415 0.26632,25.92562 c 0.14648,14.25909 -0.0783,25.91158 -0.49948,25.89441 -0.90968,-0.0371 -6.33974,-2.74273 -27.73753,-13.82082 -8.79079,-4.55116 -22.90845,-11.85886 -31.37258,-16.23932 l -15.38934,-7.96447 -12.17064,6.2609 -12.17065,6.26089 6.08249,3.16414 c 3.34536,1.74028 13.27495,6.87324 22.06573,11.40659 16.69473,8.60937 32.07671,16.66874 46.45132,24.33812 4.67012,2.49168 12.20677,6.43281 16.74813,8.75807 l 8.25703,4.22775 -0.2654,25.85707 -0.2654,25.85706 -7.99163,4.30334 c -19.03217,10.24846 -65.54537,34.02355 -66.43038,33.95571 -0.27471,-0.0211 -6.34335,-3.06917 -13.48587,-6.77358 z"
       id="path49" />
    <path
       style="fill:#4b9bc9"
       d="m 247.81963,302.939 c -0.22918,-0.22801 -0.19168,-11.29038 0.0833,-24.58305 l 0.5,-24.16847 12.6706,-6.66696 c 6.96883,-3.66683 12.93783,-6.93596 13.26445,-7.26475 0.32662,-0.32878 -8.52515,-5.23007 -19.6706,-10.89176 -11.14545,-5.66168 -22.51445,-11.52185 -25.26445,-13.02258 -2.75,-1.50074 -14.225,-7.47211 -25.5,-13.26971 -11.275,-5.7976 -22.8625,-11.81171 -25.75,-13.36468 l -5.25,-2.82358 v -25.21259 -25.21258 l 8.75,-4.71615 c 4.8125,-2.59388 15.725,-8.53305 24.25,-13.19815 8.525,-4.66511 17.75,-9.71159 20.5,-11.21441 2.75,-1.50281 8.74737,-4.6621 13.32749,-7.02062 l 8.32748,-4.288248 10.17252,5.340988 c 5.59489,2.93755 11.74752,6.22175 13.67252,7.29822 1.925,1.07647 10.25,5.55432 18.5,9.95079 28.10306,14.97625 30.00025,16.00354 30.69941,16.62308 0.84219,0.74627 1.31295,49.94074 0.48582,50.76787 -0.3185,0.31851 -9.94048,-4.25887 -21.38217,-10.17195 -11.44169,-5.91309 -28.00306,-14.45705 -36.80307,-18.98658 l -16,-8.23552 -12,6.12297 c -6.6,3.36763 -11.90236,6.57297 -11.78305,7.12297 0.2066,0.95229 2.99492,2.51407 23.78305,13.32119 4.95,2.57335 9.15,5.01632 9.33333,5.42882 0.18334,0.4125 0.92761,0.75 1.65394,0.75 0.72633,0 4.10706,1.575 7.51273,3.5 3.40567,1.925 6.5989,3.5 7.09607,3.5 0.49716,0 0.90393,0.45 0.90393,1 0,0.55 0.3375,0.91108 0.75,0.8024 0.89892,-0.23682 14.51199,6.66801 39.25,19.90841 l 7.5,4.01419 0.78222,22.3875 c 0.84425,24.16293 0.52776,28.6535 -2.08739,29.61712 -0.93216,0.34347 -1.91983,0.91822 -2.19483,1.27721 -0.275,0.35899 -7.925,4.49648 -17,9.19443 -9.075,4.69794 -24.42263,12.64955 -34.10585,17.67023 -17.90936,9.28588 -18.24688,9.44086 -18.97747,8.71395 z"
       id="path13" />
    <path
       style="fill:#4babb4;stroke-width:1.68382"
       d="m 221.66185,164.56105 c 1.50903,-1.85742 2.20474,-3.37711 1.54603,-3.37711 -1.92287,0 -10.46465,5.97931 -10.46465,7.32534 0,2.21138 6.11289,-0.49475 8.91862,-3.94823 z"
       id="path39" />
    <path
       style="fill:#4babb4;stroke-width:3.31542"
       d="m 195.30619,182.59946 c 5.87308,-6.18653 -1.80437,-6.18653 -14.18361,0 l -8.86476,4.43018 9.31707,0.10973 c 5.12437,0.0604 11.30349,-1.98248 13.7313,-4.53991 z"
       id="path38" />
    <path
       style="fill:#4babb4;stroke-width:1.60988"
       d="m 222.40595,208.2877 c 0,-0.85542 -1.49973,-1.5553 -3.33273,-1.5553 -1.83299,0 -3.33272,0.69988 -3.33272,1.5553 0,0.85542 1.49973,1.55531 3.33272,1.55531 1.833,0 3.33273,-0.69989 3.33273,-1.55531 z"
       id="path36" />
    <path
       style="fill:#4babb4;stroke-width:2.70349"
       d="m 243.84289,219.92274 c 0,-0.57244 -1.92742,-1.75048 -4.28317,-2.6179 -2.45605,-0.90435 -3.5639,-0.4604 -2.597,1.04078 1.62077,2.51637 6.88017,3.72195 6.88017,1.57712 z"
       id="path35" />
    <path
       style="fill:#4babb4"
       d="m 247.93758,302.89957 c -0.22918,-0.22801 -0.58434,-12.23276 -0.30936,-25.52543 l 0.5,-24.16847 12.6706,-6.66696 c 6.96883,-3.66683 12.93699,-6.93512 13.26259,-7.26288 0.32559,-0.32776 -7.22286,-4.58084 -16.77435,-9.45128 -14.14551,-7.21302 -17.27909,-9.18896 -16.89595,-10.65408 0.30674,-1.173 -0.0811,-1.79872 -1.11487,-1.79872 -1.0478,0 -1.37535,0.547 -0.96612,1.61343 0.40468,1.05458 -2.86696,-0.23904 -9.44533,-3.73472 -5.53546,-2.94149 -9.8471,-5.69987 -9.58142,-6.12975 0.26567,-0.42987 0.87086,-0.5419 1.34485,-0.24896 0.47399,0.29294 1.14446,0.0753 1.48992,-0.48369 0.37419,-0.60541 -0.63249,-1.01631 -2.4899,-1.01631 -1.86426,0 -2.86462,0.41004 -2.48781,1.01973 0.34664,0.56085 -6.03932,-2.41364 -14.19098,-6.60998 -21.02968,-10.82571 -28.33747,-14.72895 -28.06159,-14.98825 0.1322,-0.12427 1.36538,-0.38244 2.74038,-0.57372 1.375,-0.19128 3.4,-1.32318 4.5,-2.51534 1.1,-1.19216 3.9125,-2.98581 6.25,-3.9859 2.3375,-1.00009 4.25,-2.16219 4.25,-2.58244 0,-1.21733 -0.48773,-1.02528 -10.49725,4.13346 l -9.50275,4.89756 v -25.33599 -25.33599 l 12.75,6.54746 c 21.50095,11.04128 33.70972,17.51266 34.60066,18.34041 0.46788,0.43467 -0.0133,1.06454 -1.06934,1.3997 -2.40899,0.76459 -9.02565,5.58929 -7.66521,5.58929 0.55256,0 3.87867,-1.12632 7.39135,-2.50292 4.50134,-1.76406 4.53789,-4.09377 5.28,-3.34515 0.74142,0.74794 2.60702,1.7692 1.25923,1.25574 -1.36558,-0.52024 0.17499,0.0564 1.03304,0.59922 0.80417,0.50878 0.70764,0.2952 1.26667,0.675 0.97213,0.66046 3.19568,1.37972 6.3609,3.11935 2.91098,1.59989 9.1177,4.88662 13.7927,7.30383 4.675,2.41721 8.65,4.73243 8.83333,5.14493 0.18334,0.4125 0.92761,0.75 1.65394,0.75 0.72633,0 4.10706,1.575 7.51273,3.5 3.40567,1.925 3.10756,1.90901 3.60473,1.90901 0.49716,0 4.14142,2.26923 4.61624,2.5468 1.01647,0.59419 -0.15129,0.17402 1.05936,0.62562 4.43928,1.65594 13.98166,6.88898 38.71967,20.12938 l 7.5,4.01419 0.78222,22.3875 c 1.16923,33.46384 0.78299,28.73203 -1.6162,30.3239 -0.82779,0.54924 -1.88056,1.05565 -2.37153,1.35575 -0.38584,0.23584 -7.9839,4.57501 -17.0589,9.27296 -9.075,4.69794 -23.71584,12.41395 -33.39906,17.43463 -17.90936,9.28588 -18.7966,9.75499 -19.52719,9.02808 z"
       id="path33"
       sodipodi:nodetypes="sscssssssssssssssssssscccsssssssssssssssssscssssss" />
    <path
       style="fill:#019ad1;stroke-width:1.01135"
       d="m 316.17258,183.99652 c -4.47955,-2.38493 -23.88907,-12.5264 -55.97049,-29.24459 -5.82396,-3.03496 -10.942,-5.85281 -11.37342,-6.26188 -0.62812,-0.59556 -1.00466,-24.17994 -0.76635,-48.00084 0.0211,-2.109235 -0.67588,-5.31507 -0.0492,-5.31507 0.96227,0 18.2664,10.0627 56.05776,30.66218 4.4373,2.4187 10.45036,5.61601 13.36233,7.10512 l 5.2945,2.70748 v 25.08445 c 0,13.79645 -0.34035,25.27868 -0.75636,25.51608 -0.41599,0.23741 -3.02543,-0.77642 -5.79874,-2.25293 z"
       id="path72"
       sodipodi:nodetypes="ssssssscsss" />
    <path
       style="fill:#4377a1;stroke-width:1.03565"
       d="m 173.22397,161.39148 v -25.16055 l 13.55462,6.60577 c 13.38815,6.52465 35.17692,17.42767 37.03263,18.46174 0.52604,0.29313 0.135,0.16936 -2.8541,2.23359 -12.79287,6.71451 -16.89237,8.77348 -30.89155,15.51533 -8.57074,4.12757 -15.86631,7.50466 -16.21239,7.50466 -0.34605,0 -0.62921,-11.32223 -0.62921,-25.16054 z"
       id="path60"
       sodipodi:nodetypes="scsscsss" />
    <path
       style="fill:#4377a1;stroke-width:1.05019"
       d="m 321.17526,263.12789 c -0.57625,-0.47967 -9.48491,-4.83307 -19.79698,-9.67424 -24.79284,-11.63938 -27.62644,-13.10492 -27.27346,-14.1059 0.38401,-1.08901 5.58237,-3.71954 25.47331,-12.89029 8.87579,-4.0922 17.75078,-8.3884 19.72221,-9.54711 l 3.58441,-2.10675 v 24.5982 c 0,13.52901 -0.14888,24.5982 -0.33087,24.5982 -0.18198,0 -0.80236,-0.39245 -1.37862,-0.87211 z"
       id="path59" />
    <path
       style="fill:#443262"
       d="m 29.284265,406.9475 c -6.66824,-0.69691 -8.356762,-1.43047 -8.101838,-3.51972 0.04176,-0.34223 6.792295,-0.55856 15.001196,-0.48075 15.99952,0.15167 20.89018,-0.86861 22.992391,-4.79663 0.59427,-1.1104 1.080491,-6.08097 1.080491,-11.0457 0,-8.04949 -0.241446,-9.25173 -2.230101,-11.10444 -2.86162,-2.66601 -3.970564,-2.86679 -17.769899,-3.21738 -13.192746,-0.33517 -17.339045,-1.94274 -20.130462,-7.80479 -3.55158,-7.45842 -1.744026,-23.28944 3.268329,-28.62484 3.117269,-3.31818 10.570527,-4.7028 21.204058,-3.93914 14.635153,1.05103 17.658075,1.62534 17.658075,3.35474 0,1.34853 -1.82001,1.45907 -14.521306,0.88194 -16.720654,-0.75976 -20.251049,0.0745 -23.026417,5.4415 -1.324296,2.5609 -1.589631,5.15165 -1.251638,12.22108 0.396062,8.28398 0.6389,9.15186 3.169904,11.32893 2.551831,2.195 3.582502,2.35922 14.935221,2.37966 20.435621,0.0368 23.694236,2.75717 23.694236,19.7805 0,8.64798 -0.288382,10.3297 -2.277487,13.28134 -4.277194,6.34692 -13.58035,7.9659 -33.694753,5.8637 z m 69.259397,0.0881 c -9.086188,-1.40858 -14.764835,-6.29107 -17.350544,-14.91799 -1.742819,-5.81471 -2.307854,-25.7391 -1.007125,-35.51349 2.030545,-15.25863 6.862491,-21.69597 17.827751,-23.75097 7.103346,-1.33123 19.547336,-0.5884 24.448456,1.45941 8.62387,3.60329 12.8047,15.40039 12.77952,36.06009 -0.0247,20.24651 -3.60218,30.36882 -12.16923,34.43203 -5.00727,2.37487 -16.72537,3.44064 -24.528828,2.23092 z m 19.476408,-5.55804 c 9.70843,-2.8831 12.44479,-10.00362 12.42397,-32.32952 -0.0185,-19.83204 -2.40266,-27.24076 -9.92637,-30.84585 -4.91212,-2.35371 -22.312152,-2.42929 -26.49944,-0.1151 -7.398162,4.08874 -9.823829,11.7942 -9.776723,31.05706 0.05428,22.19754 2.455101,28.8481 11.53814,31.96206 6.241763,2.13988 15.565333,2.25363 22.240423,0.27135 z m 105.45462,5.41715 c -5.69207,-1.36261 -10.6775,-6.4636 -12.83941,-13.13704 -1.38423,-4.27288 -1.78404,-10.45551 -2.13449,-33.00769 L 208.06958,333 h 2.59345 2.59347 l 0.0156,25.25 c 0.0213,34.41524 1.61826,40.69151 11.08019,43.54636 6.28149,1.89525 19.62222,1.13672 23.89259,-1.35848 7.41094,-4.33026 8.99782,-12.11648 9.00581,-44.18788 l 0.006,-23.25 h 2.62678 2.62678 l -0.54334,26.75 c -0.58673,28.88588 -1.43818,34.58242 -6.07815,40.66575 -1.38554,1.81654 -4.15561,4.07934 -6.15571,5.02845 -4.40148,2.08864 -19.99432,2.95 -26.25816,1.45053 z m 154.59071,0.079 c -8.82907,-1.48884 -13.10647,-5.40425 -16.35801,-14.9737 -2.5781,-7.58747 -2.66157,-34.78487 -0.1318,-42.94318 3.90426,-12.59088 9.61859,-16.41635 24.65049,-16.50232 5.24174,-0.03 11.22755,0.3052 13.30181,0.74482 5.11883,1.08492 9.99388,5.61701 12.84717,11.9434 2.23327,4.9517 2.3714,6.39073 2.37628,24.75728 0.005,19.03163 -0.0587,19.63636 -2.65614,25.17712 -3.34411,7.13367 -7.9284,10.33681 -16.83869,11.76553 -7.29561,1.16981 -10.40477,1.17543 -17.19111,0.031 z m 19.81831,-5.45563 c 6.19941,-1.84103 8.8374,-4.58091 11.13605,-11.56611 3.73134,-11.33892 2.33268,-39.57801 -2.3113,-46.66565 -3.55303,-5.42258 -11.97364,-7.80708 -23.70516,-6.71267 -8.46346,0.78953 -12.42574,3.2876 -15.7468,9.92781 -2.39645,4.79151 -2.5,5.76483 -2.5,23.49855 0,17.28227 0.15133,18.80721 2.29911,23.16717 2.47632,5.02691 5.00108,7.15041 10.32051,8.68026 5.15047,1.48127 14.93998,1.32404 20.50759,-0.32936 z m -241.29847,4.02417 c -6.2149,-2.70344 -6.60291,-5.58802 -5.7286,-42.58773 C 151.51738,334.99303 151.68471,333 153.37166,333 c 1.70053,0 1.82426,1.94503 2.09603,32.95123 0.22219,25.34999 0.58797,33.25083 1.58566,34.25 0.92437,0.92572 6.38177,1.44239 19,1.79877 17.42455,0.49213 17.70818,0.53541 18.0227,2.75 l 0.31955,2.25 -17.31955,-0.0391 c -12.44916,-0.0281 -18.21133,-0.42706 -20.49081,-1.41862 z M 297.2565,372 v -35 h -11.5 c -10.83332,0 -11.5,-0.11594 -11.5,-2 0,-1.94886 0.66668,-2 26.07333,-2 24.29243,0 26.05049,0.11953 25.73903,1.75 -0.28843,1.50986 -1.91084,1.81861 -11.82333,2.25 l -11.48903,0.5 -0.26296,34.75 -0.26295,34.75 h -2.48705 -2.48704 z m 42,-1.93045 V 333 h 2.51232 2.51232 l -0.26232,36.75 -0.26232,36.75 -2.25,0.31955 -2.25,0.31955 z m 92,0 V 333 h 2.52265 c 2.10136,0 3.63035,1.71174 9.15567,10.25 3.64816,5.6375 9.27749,14.3 12.50961,19.25 3.23212,4.95 6.31089,9.675 6.84171,10.5 7.01014,10.89524 15.1719,22.56718 15.96533,22.83166 0.65923,0.21974 1.00503,-10.53191 1.00503,-31.24833 V 333 h 2.51232 2.51232 l -0.26232,36.75 -0.26232,36.75 h -2.48207 c -2.00243,0 -3.48732,-1.54595 -7.68404,-8 -26.03953,-40.04566 -35.89341,-54.5 -37.154,-54.5 -1.27655,0 -1.42127,4.19802 -1.07727,31.25 l 0.39738,31.25 -2.25,0.31955 -2.25,0.31955 z"
       id="path3" />
    <path
       style="fill:#333135"
       d="m 26.006505,406.26496 c -2.908148,-0.22931 -4.75,-0.85477 -4.75,-1.61302 0,-0.93628 4.020564,-1.22792 16.477134,-1.19521 l 16.477134,0.0433 3.148892,-3.14526 c 2.773592,-2.77039 3.20601,-3.96223 3.628138,-10 0.600603,-8.59051 -0.56266,-13.13969 -4.019979,-15.72095 -2.281093,-1.70308 -4.836262,-2.11275 -16.455857,-2.63838 C 23.641039,371.23224 21.660444,370.2518 19.815249,361.75 19.328626,359.50786 19.568191,359 21.112453,359 c 1.298038,0 2.080002,0.92975 2.484976,2.95462 1.052733,5.26367 4.405362,6.46401 19.650048,7.03534 10.721465,0.4018 14.181398,0.88558 16.304094,2.27968 4.008019,2.63229 5.704934,7.74975 5.704934,17.2046 0,6.89162 -0.369141,8.78256 -2.269933,11.62788 -3.813517,5.70848 -7.55547,6.92079 -20.730067,6.71608 -6.325,-0.0983 -13.6375,-0.34724 -16.25,-0.55324 z m 67.905189,-0.66231 c -9.259573,-3.44912 -12.388581,-9.53192 -13.885496,-26.99344 -1.04977,-12.24558 -1.009097,-12.96123 0.812612,-14.29794 1.851353,-1.35846 1.940736,-1.01629 2.58372,9.89079 0.888435,15.0707 2.183414,19.66315 6.992536,24.79794 3.049941,3.25648 3.598201,3.39397 15.131824,3.79454 11.7682,0.40871 17.07408,-1.19378 20.49816,-6.1909 3.14768,-4.59374 3.97408,-8.05693 4.77473,-20.00948 0.58695,-8.76225 0.94776,-10.34281 2.31599,-10.14537 2.38852,0.34468 2.66282,10.20633 0.56568,20.33774 -1.92642,9.30669 -5.37767,15.07913 -10.67523,17.85504 -4.49951,2.35773 -23.666481,2.99044 -29.114526,0.96108 z m 64.657716,0.29487 c -1.75289,-0.50715 -4.11539,-2.10226 -5.25,-3.54467 -1.893,-2.40657 -2.06291,-3.9704 -2.06291,-18.98771 0,-13.88012 0.22777,-16.36514 1.5,-16.36514 1.7017,0 1.77148,0.59152 2.00578,17 0.19453,13.6243 0.82841,16.37561 4.1182,17.87453 1.49708,0.68211 8.68881,1.12547 18.25641,1.12547 8.68245,0 16.05528,0.26899 16.38404,0.59777 0.32877,0.32877 0.35563,1.22877 0.0597,2 -0.43199,1.12577 -3.62219,1.38445 -16.18109,1.31204 -8.60365,-0.0496 -17.07721,-0.50513 -18.83011,-1.01229 z m 64.68709,0.14629 c 0,-0.63901 -0.46945,-0.87171 -1.04321,-0.5171 -1.79629,1.11017 -8.1063,-4.61047 -10.12885,-9.1828 -1.27049,-2.87215 -2.13403,-7.74803 -2.51606,-14.20657 -0.5492,-9.28515 -0.46866,-9.86308 1.44435,-10.36334 1.91847,-0.50169 2.04655,0.008 2.41363,9.5981 0.66863,17.46892 5.33476,22.18553 21.78085,22.01658 9.13046,-0.0938 14.15225,-1.78195 17.04929,-5.73141 2.685,-3.66037 4.91591,-11.04242 4.95841,-16.40727 0.0362,-4.56947 0.30085,-5.25 2.04159,-5.25 2.35794,0 2.45077,1.16333 0.90243,11.30845 -1.25159,8.2008 -3.54292,12.55249 -8.66838,16.46296 -3.37037,2.57143 -4.28646,2.74891 -15.9052,3.08142 -8.89995,0.2547 -12.32885,0.0297 -12.32885,-0.80902 z m 75,-13.51243 c 0,-12.45014 0.20926,-14.38831 1.5,-13.89301 1.23373,0.47343 1.5,3.04177 1.5,14.46862 0,11.68268 -0.23865,13.89301 -1.5,13.89301 -1.26422,0 -1.5,-2.27429 -1.5,-14.46862 z m 41.71382,13.16523 c -0.27508,-0.71686 -0.56295,-6.37509 -0.63972,-12.57384 -0.13867,-11.19772 -0.12485,-11.26836 2.14317,-10.94661 2.17653,0.30877 2.29255,0.76585 2.49373,9.82384 0.11604,5.225 -0.0322,10.7375 -0.32946,12.25 -0.55989,2.84898 -2.79177,3.72928 -3.66772,1.44661 z m 34.49759,0.23452 c -5.41131,-1.65916 -10.76035,-7.83575 -12.16751,-14.04991 -0.67018,-2.95967 -1.43455,-6.16872 -1.69859,-7.13122 -0.3409,-1.24261 0.0988,-1.75 1.51641,-1.75 1.61536,0 2.21485,1.05186 3.14037,5.51 2.24569,10.81746 8.18364,14.66869 22.61467,14.66741 13.33961,-0.001 18.42164,-3.03281 21.66181,-12.92217 1.21455,-3.70692 4.72143,-5.86944 4.72143,-2.91147 0,2.45711 -3.98198,10.99315 -6.26592,13.43205 -4.11502,4.39422 -7.6539,5.46571 -19.23408,5.82364 -6.05,0.18699 -12.47987,-0.11376 -14.28859,-0.66833 z m 57.45527,0.4022 c -1.06865,-1.06864 -0.76775,-15.27597 0.36851,-17.39907 2.14002,-3.99866 2.96481,-1.7548 2.96481,8.06574 0,7.66667 -0.3111,10 -1.33332,10 -0.73334,0 -1.63334,-0.3 -2,-0.66667 z m 42.49982,-7.26552 c -2.84157,-4.3627 -5.1665,-8.1877 -5.1665,-8.5 0,-0.31229 0.842,-0.56781 1.87111,-0.56781 1.0291,0 2.94159,1.57193 4.25,3.49317 3.01895,4.43301 3.87889,4.41081 3.87889,-0.10016 0,-2.87826 0.31957,-3.48436 1.5818,-3 0.86998,0.33385 1.76997,0.60699 2,0.60699 0.23,0 0.4182,3.6 0.4182,8 0,7.09119 -0.20828,8 -1.8335,8 -1.18969,0 -3.64768,-2.7853 -7,-7.93219 z"
       id="path2"
       inkscape:label="SOLUTION BAIXO" />
  </g>
</svg>
